<svg width="420" height="120" viewBox="0 0 420 120" fill="none" xmlns="http://www.w3.org/2000/svg">
    <g clip-path="url(#clip0_1_33)">
        <path d="M271.925 48.43C271.517 39.4482 271.109 30.793 270.668 21.807H260.343V12.4741L293.22 10V99.1733H300.459V106.183L274.922 109.576C274.354 106.563 273.799 103.627 273.174 100.308C269.557 102.178 266.271 103.983 262.882 105.616C243.694 114.745 227.914 106.318 224.807 85.2596C223.754 78.1354 224.297 71.1296 227.285 64.4708C234.569 48.2381 249.528 41.5344 266.671 46.7806C268.324 47.2828 269.969 47.8176 271.925 48.43ZM270.606 75.0162C270.606 68.6841 270.488 62.36 270.664 56.0197C270.737 53.268 269.741 52.3453 267.099 52.4759C259.853 52.8229 253.941 55.4318 250.287 62.0334C245.143 71.3255 247.16 85.378 254.745 92.7962C258.011 95.9807 261.755 98.1526 266.54 97.8669C269.251 97.7036 270.806 96.8054 270.68 93.5678C270.447 87.4071 270.623 81.2137 270.623 75.0285L270.606 75.0162Z" fill="white"/>
        <path d="M45.1664 46.2948H71.8465L72.5488 54.3744C73.9858 53.4925 75.1535 52.7617 76.3375 52.0554C83.9312 47.5155 91.9128 44.527 101.009 45.2537C110.991 46.0703 116.205 50.8266 116.523 60.8862C116.899 72.9464 116.678 85.0269 116.715 97.0993C116.715 98.5405 116.715 99.9572 116.715 101.692L124.166 102.101V108.514H89.2427V102.321L94.3297 101.582V89.8445C94.3297 82.3365 94.1052 74.8203 94.4114 67.3205C94.6114 62.3519 92.2721 59.5634 88.0179 57.9589C86.5009 57.397 84.9241 57.012 83.3188 56.8117C75.7822 55.8074 75.0106 56.5096 75.0106 64.087V101.68L79.9873 102.088V108.445H45.1909V102.113L52.2049 101.77C52.3192 100.619 52.5233 99.5081 52.5233 98.3935C52.5478 85.8802 52.5887 73.3628 52.4662 60.8331C52.4662 59.5022 51.7885 57.6772 50.7964 56.9669C49.196 55.8278 45.8972 55.8768 45.4195 54.6112C44.5213 52.3494 45.1664 49.467 45.1664 46.2948Z" fill="white"/>
        <path d="M180.355 62.556C172.055 63.5767 172.055 63.5767 169.381 56.5994C166.891 50.1121 160.946 47.4706 154.957 50.8429C152.867 52.0187 150.85 54.8602 150.532 57.1791C150.278 59 152.205 62.0089 154.002 63.0582C159.717 66.3937 165.841 68.9413 171.733 72.0033C178.236 75.3959 182.784 80.1931 182.838 88.1706C182.895 96.491 179.126 102.276 171.622 105.55C160.828 110.262 149.454 109.87 138.145 108.543C127.342 107.277 127.371 107.028 127.371 96.2011V89.6117C128.069 89.2035 128.187 89.0892 128.314 89.0769C136.071 88.3584 136.071 88.3584 138.475 96.046C140.835 103.554 146.91 106.902 154.361 104.828C157.79 103.877 160.701 101.798 160.395 98.2425C160.203 95.9684 158.199 93.0942 156.174 91.8858C150.634 88.5829 144.481 86.3129 138.884 83.0917C131.433 78.7968 127.134 72.4483 128.383 63.3807C129.571 54.75 135.124 49.9324 142.913 47.295C151.65 44.3392 160.677 44.8005 169.618 45.7845C180.392 46.9725 180.372 47.1807 180.363 57.9467C180.351 59.4083 180.355 60.8739 180.355 62.556Z" fill="white"/>
        <path d="M363.528 97.6056C351.304 112.083 326.58 113.957 312.343 102.811C299.03 92.3798 296.752 73.2974 307.089 58.8326C315.054 47.687 331.671 41.8488 344.854 45.564C356.171 48.7525 363.532 60.3024 363.07 74.657H324.085C323.775 81.2954 325.2 87.0437 329.838 91.0692C338.035 98.1853 347.295 101.884 358.281 97.3198C359.449 96.8339 361.066 97.4218 363.528 97.6056ZM343.886 68.2921C343.335 64.8014 342.963 61.9028 342.396 59.0449C342.071 57.3194 341.567 55.6324 340.893 54.011C338.562 48.5647 334.435 47.7809 330.319 52.137C325.89 56.8239 324.942 62.7519 324.236 69.2842L343.886 68.2921Z" fill="white"/>
        <path d="M394.846 58.9306V101.721H403.689V108.445H364.863V102.125L372.056 101.717V89.0034C372.056 79.5766 372.126 70.1497 371.983 60.7311C371.962 59.4205 371.252 57.4282 370.272 56.9424C364.169 53.9334 364.111 54.0478 364.965 46.3601H391.339C391.637 48.9853 391.91 51.4185 392.233 54.2437C400.435 49.0547 408.363 44.2657 418.701 45.119C419.517 51.9289 419.044 58.5142 415.696 64.6912C414.226 67.398 411.858 68.5983 409.045 67.1163C404.305 64.6218 399.749 61.7844 394.846 58.9306Z" fill="white"/>
        <path d="M32.3101 101.954H41.2552V108.445H0.0857353V102.047H9.81878V83.1325C9.81878 75.6245 9.65956 68.1125 9.89227 60.6086C9.99025 57.4527 9.16147 55.9543 5.85452 55.9462C3.96834 55.9462 2.08215 55.4522 0 55.1541V46.4213H32.3305L32.3101 101.954Z" fill="white"/>
        <path d="M193.804 56.5953L184.209 55.097V46.4172H216.577V101.803H225.558V108.445H184.189V102.052H193.804V56.5953Z" fill="white"/>
        <path d="M33.2777 26.645C33.1961 33.9938 27.2558 40.1504 20.2459 40.1463C13.0359 40.1463 6.93643 33.7529 7.03849 26.3102C7.14056 18.8675 13.4932 12.5353 20.5766 12.7517C27.5212 12.964 33.3553 19.3493 33.2777 26.645Z" fill="white"/>
        <path d="M217.491 26.3837C217.524 33.7651 211.743 40.0034 204.745 40.13C197.474 40.2647 191.423 34.1407 191.387 26.5552C191.35 18.9696 197.396 12.6945 204.582 12.7558C211.559 12.817 217.458 19.0349 217.491 26.3837Z" fill="white"/>
    </g>
    <defs>
        <clipPath id="clip0_1_33">
            <rect width="419.05" height="120" fill="white"/>
        </clipPath>
    </defs>
</svg>
