<?xml version="1.0" encoding="utf-8"?>
<!-- Generator: Adobe Illustrator 27.4.1, SVG Export Plug-In . SVG Version: 6.00 Build 0)  -->
<svg version="1.1" id="Layer_1" xmlns="http://www.w3.org/2000/svg" xmlns:xlink="http://www.w3.org/1999/xlink" x="0px" y="0px"
	 viewBox="0 0 896 314" style="enable-background:new 0 0 896 314;" xml:space="preserve">
<style type="text/css">
	.st0{fill:#3E910D;}
	.st1{fill:#FFFFFF;}
</style>
<path class="st0" d="M8.73,107.42c-0.37-26.14,9.2-48.51,28.72-67.11c19.51-18.59,42.99-27.71,70.43-27.34
	c34.06,0,60.21,13.53,78.44,40.6l-33.14,28.17C141.2,64.99,125.83,56.6,107.05,56.6c-15.28,0-27.39,4.6-36.32,13.81
	c-8.93,9.21-13.4,21.54-13.4,37.01c0,15.65,4.74,28.27,14.22,37.84c9.48,9.58,22.23,14.36,38.25,14.36
	c17.3,0,30.66-5.43,40.05-16.29v-8.56h-42.53V93.89h90.04v57.45c-8.47,15.1-20.62,27.34-36.46,36.73
	c-15.84,9.21-33.51,13.81-53.03,13.81c-27.44,0.37-50.91-8.7-70.43-27.2C17.93,156.17,8.36,133.75,8.73,107.42z"/>
<path class="st0" d="M385.71,198.56h-53.03l-41.15-56.62h-19.61v56.62h-47.5V16.28h71.53c20.44,0,37.28,5.76,50.54,17.26
	c13.26,11.51,19.89,26.65,19.89,45.43c0,22.83-9.58,40.14-28.72,51.92L385.71,198.56z M271.93,57.71v42.81h24.3
	c6.63,0,11.92-1.98,15.88-5.94c3.96-3.96,5.94-9.16,5.94-15.6c0-6.44-1.98-11.6-5.94-15.47c-3.96-3.87-9.25-5.8-15.88-5.8H271.93z"
	/>
<path class="st0" d="M404.49,198.56V16.28h126.49v42.81H452v25.13h56.34v39.77H452v31.76h82.3v42.81H404.49z"/>
<path class="st0" d="M563.85,198.56V16.28h126.49v42.81h-78.99v25.13h56.34v39.77h-56.34v31.76h82.3v42.81H563.85z"/>
<path class="st0" d="M837.27,16.28h47.5v185.59h-15.19l-98.87-95.84v92.52h-47.5V12.97h15.19l98.87,94.45V16.28z"/>
<g>
	<path class="st1" d="M133.71,200.81c2.83,0,6.86-0.4,11.3-0.4c16.55,0,44,0.81,61.76,1.62c3.63,0,8.48,3.23,10.09,6.46
		c2.42,3.63,0.4,5.65-2.83,5.65l-71.05-1.61c-3.23,0-6.86-1.61-9.69-5.25C130.88,204.44,130.48,200.81,133.71,200.81z"/>
</g>
<g>
	<path class="st1" d="M67.12,270.82c4.26,0.95,9.47,1.42,15.63,1.42c15.16,0,34.11-2.37,46.43-5.21
		c-11.84-6.16-29.84-15.16-39.32-20.37c-12.32-7.11-25.58-11.84-27.47-26.05c-3.79-25.11,47.85-40.27,72-43.58
		c7.58-0.95,17.05,8.05,13.26,12.79c-17.53,6.16-60.64,14.21-65.85,26.53c-2.84,6.63,8.05,11.37,17.53,17.05
		c18,9.95,32.21,17.05,41.69,24.63c10.42,9,1.42,22.27-10.9,25.58c-8.53,2.37-20.84,3.79-33.16,3.79c-11.84,0-23.21-1.42-30.32-4.26
		C60.96,280.3,56.69,268.45,67.12,270.82z"/>
	<path class="st1" d="M339.75,232.19c1.9,6.16,2.37,13.26,0.95,20.37c-4.26,23.69-23.68,35.53-45.48,34.11
		c-17.53-0.95-29.37-15.63-31.74-28.9c-3.32-19.9,9-42.64,19.9-46.42c0.95,0,1.42-0.47,2.37-0.47c1.9-6.63,5.21-11.84,14.69-11.37
		c12.79,1.9,23.21,8.05,30.32,16.58c11.84,1.42,24.16,1.9,35.05,1.9c22.26,0,40.74-1.9,45-1.9c13.74-0.47,10.42,5.68-0.95,9.47
		C399.44,229.35,368.65,233.62,339.75,232.19z M280.06,256.35c2.37,13.74,7.58,18.95,16.58,18.47c20.84-0.95,31.27-27.95,23.69-45
		c-10.9-1.9-19.9-4.74-26.53-9l-0.95,0.95C286.69,226.51,277.69,243.09,280.06,256.35z"/>
	<path class="st1" d="M399.44,202.35c0-3.32,4.74-3.32,9.47-0.95c4.26,2.37,7.11,7.11,7.11,9.95l-0.47,18.47
		c11.84-15.16,46.9-42.64,72.95-38.37c10.9,1.9,17.53,11.84,14.21,15.63c-6.63,7.58-13.26,4.74-12.79,0.95l0.48-3.79
		c-23.69-0.47-63.01,28.42-74.37,61.11c-1.42,3.79-1.42,6.63-3.32,20.37c0.47,6.16-15.16,0-17.05-7.11
		C393.75,274.36,392.8,262.04,399.44,202.35z"/>
	<path class="st1" d="M511.71,232.67c0-14.68,2.84-29.37,8.05-37.42c0.47-2.37,5.21-2.84,10.9-1.42c5.21,1.89,8.05,5.68,7.58,8.05
		c-3.79,3.79-13.26,57.32-6.16,63.48c3.79,2.84,8.53,4.26,13.74,4.26c29.37,0,79.58-37.9,93.8-52.11c1.9-1.89,6.63,0.95,0.95,11.37
		c-9,16.58-52.11,54-84.8,55.42c-11.84,0.47-24.63-2.37-33.63-12.32C515.03,264.41,511.71,248.3,511.71,232.67z M525.92,154.03
		c0.95-1.42,4.26-10.9,5.21-13.26l0.95-7.11c0-2.84,5.21-3.79,9.95-1.9c6.16,1.42,9.95,5.21,9,7.58c0,1.9,0,5.21-1.42,8.05
		c-0.95,2.37-4.74,12.79-6.16,15.16c-1.42,1.89-7.11,1.89-11.37-0.47C526.39,160.19,523.55,155.93,525.92,154.03z"/>
	<path class="st1" d="M621.13,255.41c-1.42-4.26-2.37-9-2.37-13.74c0-20.84,14.21-42.16,37.42-43.11
		c14.69,0,28.42,14.21,23.21,27.95c-6.16,15.16-26.53,26.53-43.11,26.53c1.42,9,18,24.16,34.58,24.16c44.53,0,77.69-33.16,97.59-54
		c10.9-11.37,9-0.47,2.37,12.79c-13.26,27.48-43.58,50.69-76.27,52.58C666.61,289.99,630.61,284.78,621.13,255.41z M635.82,241.67
		c19.9-9,33.16-21.79,27.95-27C653.82,204.72,635.34,229.83,635.82,241.67z"/>
	<path class="st1" d="M760.87,271.51c4.26,0.95,9.47,1.42,15.63,1.42c15.16,0,34.11-2.37,46.43-5.21
		c-11.84-6.16-29.84-15.16-39.32-20.37c-12.32-7.11-25.58-11.84-27.47-26.05c-3.79-25.11,47.85-40.27,72-43.58
		c7.58-0.95,17.05,8.05,13.26,12.79c-17.53,6.16-60.64,14.21-65.85,26.53c-2.84,6.63,8.05,11.37,17.53,17.05
		c18,9.95,32.21,17.05,41.69,24.63c10.42,9,1.42,22.27-10.9,25.58c-8.53,2.37-20.84,3.79-33.16,3.79c-11.84,0-23.21-1.42-30.32-4.26
		C754.72,280.99,750.45,269.14,760.87,271.51z"/>
	<g>
		<path class="st1" d="M158.52,239.34c0-13.48,2.61-26.96,7.39-34.35c0.43-2.17,4.78-2.61,10-1.3c4.78,1.74,7.39,5.22,6.96,7.39
			c-3.48,3.48-12.18,52.62-5.65,58.27c3.48,2.61,7.83,3.91,12.61,3.91c26.96,0,73.06-34.79,86.1-47.83
			c1.74-1.74,6.09,0.87,0.87,10.44c-8.26,15.22-47.83,49.57-77.84,50.88c-10.87,0.43-22.61-2.17-30.88-11.31
			C161.56,268.48,158.52,253.69,158.52,239.34z M171.57,167.16c0.87-1.3,3.91-10,4.78-12.18l0.87-6.52c0-2.61,4.78-3.48,9.13-1.74
			c5.65,1.3,9.13,4.78,8.26,6.96c0,1.74,0,4.78-1.3,7.39c-0.87,2.17-15.99,50.48-17.29,52.65c-1.3,1.74-6.52,1.74-10.44-0.43
			C160.36,211.54,169.39,168.89,171.57,167.16z"/>
	</g>
</g>
</svg>
